<?xml version="1.0" encoding="utf-8"?>
<!-- Generator: Adobe Illustrator 27.2.0, SVG Export Plug-In . SVG Version: 6.00 Build 0)  -->
<svg version="1.1" id="Layer_1" xmlns="http://www.w3.org/2000/svg" xmlns:xlink="http://www.w3.org/1999/xlink" x="0px" y="0px"
	 viewBox="0 0 32 36" style="enable-background:new 0 0 32 36;" xml:space="preserve">
<style type="text/css">
	.st0{fill:#FF39AA;}
</style>
<g id="Page-1">
	<g id="Icons-Pattern-One" transform="translate(-560.000000, -93.000000)">
		<g id="Play" transform="translate(558.000000, 93.000000)">
			<g>
				<path class="st0" d="M4.3,2c0,0,0.1,0,0.1,0l27,15.7c0.1,0.1,0.2,0.2,0.1,0.3c0,0-0.1,0.1-0.1,0.1L4.4,34c0,0-0.1,0-0.1,0
					c0,0-0.2,0-0.2-0.1c0,0,0-0.1,0-0.1V2.3C4,2.1,4.1,2,4.3,2 M4.3,0C3,0,2,1,2,2.3v31.5c0,0.4,0.1,0.8,0.3,1.1
					C2.7,35.6,3.5,36,4.3,36c0.4,0,0.8-0.1,1.1-0.3l27-15.7c0.3-0.2,0.6-0.5,0.8-0.8c0.6-1.1,0.3-2.5-0.8-3.1L5.4,0.3
					C5,0.1,4.6,0,4.3,0L4.3,0z"/>
			</g>
		</g>
	</g>
</g>
</svg>
